<svg width="512" height="512" viewBox="0 0 512 512" fill="none" xmlns="http://www.w3.org/2000/svg">
<circle cx="256" cy="256" r="256" fill="#F3305F"/>
<g clip-path="url(#clip0)">
<path d="M207.744 241.098C198.94 241.098 191.777 249.911 191.777 260.744C191.777 271.576 198.94 280.389 207.744 280.389C216.548 280.389 223.711 271.576 223.711 260.744C223.711 249.911 216.548 241.098 207.744 241.098Z" fill="white"/>
<path d="M303.256 241.098C294.452 241.098 287.289 249.911 287.289 260.744C287.289 271.576 294.452 280.389 303.256 280.389C312.06 280.389 319.223 271.576 319.223 260.744C319.223 249.911 312.06 241.098 303.256 241.098Z" fill="white"/>
<path d="M427.985 328.315C427.746 324.041 421.702 222.956 383.316 162.487C382.531 161.251 381.486 160.199 380.255 159.407C332.791 128.843 300.469 128.917 299.107 128.925C295.186 128.976 291.81 131.258 290.178 134.553L273.872 165.8C304.46 167.801 333.508 174.756 357.153 185.89C362.203 188.267 364.37 194.29 361.992 199.34C360.269 202.999 356.634 205.144 352.841 205.144C351.398 205.144 349.934 204.834 348.542 204.179C322.839 192.077 289.796 185.411 255.5 185.411C221.206 185.411 188.164 192.075 162.461 204.177C157.412 206.554 151.389 204.387 149.011 199.337C146.634 194.286 148.8 188.264 153.85 185.887C177.496 174.755 206.544 167.8 237.129 165.799L220.842 134.588C219.217 131.274 215.83 128.977 211.894 128.925C210.523 128.922 178.206 128.846 130.747 159.407C129.516 160.2 128.471 161.251 127.686 162.487C89.2989 222.956 83.254 324.041 83.0155 328.315C82.8659 330.994 83.7877 333.622 85.5781 335.622C87.3583 337.608 129.646 384.076 188.1 384.076C188.361 384.076 188.63 384.075 188.892 384.073C191.964 384.051 194.858 382.633 196.759 380.221L223.72 346.005C188.937 342.033 157.358 331.602 134.179 316.054C129.543 312.945 128.306 306.665 131.415 302.03C134.525 297.393 140.804 296.157 145.44 299.267C172.273 317.266 212.388 327.589 255.5 327.589C298.614 327.589 338.729 317.266 365.56 299.266C370.194 296.155 376.474 297.393 379.584 302.029C382.695 306.664 381.457 312.943 376.821 316.053C353.644 331.602 322.065 342.034 287.28 346.006L314.241 380.222C316.142 382.634 319.036 384.052 322.108 384.074C322.374 384.075 322.635 384.077 322.9 384.077C381.348 384.077 423.643 337.609 425.422 335.622C427.212 333.622 428.133 330.994 427.985 328.315V328.315ZM207.744 300.604C187.794 300.604 171.563 282.723 171.563 260.744C171.563 238.765 187.794 220.883 207.744 220.883C227.694 220.883 243.926 238.765 243.926 260.744C243.926 282.723 227.694 300.604 207.744 300.604ZM303.256 300.604C283.306 300.604 267.074 282.723 267.074 260.744C267.074 238.765 283.306 220.883 303.256 220.883C323.206 220.883 339.437 238.765 339.437 260.744C339.437 282.723 323.206 300.604 303.256 300.604Z" fill="white"/>
</g>
<defs>
<clipPath id="clip0">
<rect width="345" height="345" fill="white" transform="translate(83 84)"/>
</clipPath>
</defs>
</svg>
