<svg width="691" height="200" viewBox="0 0 691 200" fill="none" xmlns="http://www.w3.org/2000/svg">
<g filter="url(#filter0_d)">
<rect x="10" y="5" width="671" height="180" rx="13" fill="#69156A"/>
</g>
<path d="M46.552 56.636C45.208 56.5427 44.116 56.3653 43.276 56.104C42.4547 55.824 41.8387 55.572 41.428 55.348L42.38 52.688C42.9773 52.9867 43.696 53.2573 44.536 53.5C45.3947 53.7427 46.3653 53.864 47.448 53.864C48.736 53.864 49.6227 53.6773 50.108 53.304C50.612 52.912 50.864 52.3987 50.864 51.764C50.864 51.3347 50.7613 50.9613 50.556 50.644C50.3507 50.3267 50.0613 50.0467 49.688 49.804C49.3147 49.5613 48.8667 49.3373 48.344 49.132C47.84 48.9267 47.28 48.712 46.664 48.488C46.0853 48.2827 45.5067 48.0493 44.928 47.788C44.368 47.5267 43.8547 47.2093 43.388 46.836C42.94 46.444 42.576 45.9773 42.296 45.436C42.016 44.8947 41.876 44.232 41.876 43.448C41.876 42.16 42.2587 41.068 43.024 40.172C43.7893 39.2573 44.9653 38.6693 46.552 38.408V35.272H49.464V38.296C50.36 38.3707 51.1627 38.5013 51.872 38.688C52.5813 38.856 53.1413 39.024 53.552 39.192L52.852 41.964C52.3107 41.7587 51.6667 41.5627 50.92 41.376C50.192 41.1893 49.352 41.096 48.4 41.096C47.392 41.096 46.636 41.2827 46.132 41.656C45.628 42.0107 45.376 42.5053 45.376 43.14C45.376 43.5133 45.4507 43.8307 45.6 44.092C45.7493 44.3347 45.9733 44.5587 46.272 44.764C46.5707 44.9507 46.9347 45.1373 47.364 45.324C47.7933 45.492 48.2787 45.6693 48.82 45.856C49.5853 46.1547 50.304 46.472 50.976 46.808C51.6667 47.1253 52.264 47.508 52.768 47.956C53.272 48.3853 53.664 48.8987 53.944 49.496C54.2427 50.0933 54.392 50.8027 54.392 51.624C54.392 52.856 54.0093 53.92 53.244 54.816C52.4787 55.712 51.2187 56.2907 49.464 56.552V60.052H46.552V56.636Z" fill="#00FF29"/>
<path d="M68.2732 54.564C69.1692 54.564 69.8226 54.4613 70.2332 54.256C70.6439 54.032 70.8492 53.6587 70.8492 53.136C70.8492 52.6507 70.6252 52.2493 70.1772 51.932C69.7479 51.6147 69.0292 51.2693 68.0212 50.896C67.4052 50.672 66.8359 50.4387 66.3132 50.196C65.8092 49.9347 65.3706 49.636 64.9972 49.3C64.6239 48.964 64.3252 48.5627 64.1012 48.096C63.8959 47.6107 63.7932 47.0227 63.7932 46.332C63.7932 44.988 64.2879 43.9333 65.2772 43.168C66.2666 42.384 67.6106 41.992 69.3092 41.992C70.1679 41.992 70.9892 42.076 71.7732 42.244C72.5572 42.3933 73.1452 42.5427 73.5372 42.692L72.9212 45.436C72.5479 45.268 72.0719 45.1187 71.4932 44.988C70.9146 44.8387 70.2426 44.764 69.4772 44.764C68.7866 44.764 68.2266 44.8853 67.7972 45.128C67.3679 45.352 67.1532 45.7067 67.1532 46.192C67.1532 46.4347 67.1906 46.6493 67.2652 46.836C67.3586 47.0227 67.5079 47.2 67.7132 47.368C67.9186 47.5173 68.1892 47.676 68.5252 47.844C68.8612 47.9933 69.2719 48.152 69.7572 48.32C70.5599 48.6187 71.2412 48.9173 71.8012 49.216C72.3612 49.496 72.8186 49.8227 73.1732 50.196C73.5466 50.5507 73.8172 50.9613 73.9852 51.428C74.1532 51.8947 74.2372 52.4547 74.2372 53.108C74.2372 54.508 73.7146 55.572 72.6692 56.3C71.6426 57.0093 70.1679 57.364 68.2452 57.364C66.9572 57.364 65.9212 57.252 65.1372 57.028C64.3532 56.8227 63.8026 56.6547 63.4852 56.524L64.0732 53.696C64.5772 53.9013 65.1746 54.0973 65.8652 54.284C66.5746 54.4707 67.3772 54.564 68.2732 54.564ZM89.4141 56.552C88.7608 56.72 87.9114 56.888 86.8661 57.056C85.8208 57.2427 84.6728 57.336 83.4221 57.336C82.2461 57.336 81.2568 57.168 80.4541 56.832C79.6701 56.496 79.0354 56.0293 78.5501 55.432C78.0834 54.8347 77.7474 54.1253 77.5421 53.304C77.3368 52.464 77.2341 51.5493 77.2341 50.56V42.356H80.6221V50.028C80.6221 51.596 80.8461 52.716 81.2941 53.388C81.7608 54.06 82.5634 54.396 83.7021 54.396C84.1128 54.396 84.5421 54.3773 84.9901 54.34C85.4568 54.3027 85.8021 54.256 86.0261 54.2V42.356H89.4141V56.552ZM108.521 52.072H104.629L103.677 57H100.681L101.633 52.072H99.3935V49.412H102.137L102.949 45.184H99.3935V42.552H103.453L104.405 37.596H107.401L106.449 42.552H110.341L111.293 37.596H114.289L113.337 42.552H115.605V45.184H112.833L112.021 49.412H115.605V52.072H111.517L110.565 57H107.569L108.521 52.072ZM105.133 49.412H109.025L109.837 45.184H105.945L105.133 49.412ZM131.003 42.356C129.491 47.9187 127.736 52.9587 125.739 57.476C125.365 58.316 124.983 59.0347 124.591 59.632C124.199 60.2293 123.76 60.724 123.275 61.116C122.789 61.508 122.248 61.788 121.651 61.956C121.053 62.1427 120.363 62.236 119.579 62.236C119.056 62.236 118.533 62.18 118.011 62.068C117.507 61.956 117.124 61.8347 116.863 61.704L117.479 58.988C118.151 59.2493 118.813 59.38 119.467 59.38C120.344 59.38 121.025 59.1653 121.511 58.736C122.015 58.3253 122.453 57.6813 122.827 56.804C121.763 54.7507 120.736 52.5107 119.747 50.084C118.776 47.6573 117.908 45.0813 117.143 42.356H120.755C120.941 43.14 121.165 43.9893 121.427 44.904C121.707 45.8187 122.005 46.752 122.323 47.704C122.64 48.6373 122.976 49.5707 123.331 50.504C123.685 51.4373 124.04 52.3053 124.395 53.108C124.992 51.4467 125.552 49.6827 126.075 47.816C126.597 45.9307 127.073 44.1107 127.503 42.356H131.003ZM146.81 49.664C146.81 50.8213 146.642 51.876 146.306 52.828C145.97 53.78 145.494 54.592 144.878 55.264C144.262 55.936 143.515 56.4587 142.638 56.832C141.779 57.2053 140.827 57.392 139.782 57.392C138.737 57.392 137.785 57.2053 136.926 56.832C136.067 56.4587 135.33 55.936 134.714 55.264C134.098 54.592 133.613 53.78 133.258 52.828C132.922 51.876 132.754 50.8213 132.754 49.664C132.754 48.5067 132.922 47.4613 133.258 46.528C133.613 45.576 134.098 44.764 134.714 44.092C135.349 43.42 136.095 42.9067 136.954 42.552C137.813 42.1787 138.755 41.992 139.782 41.992C140.809 41.992 141.751 42.1787 142.61 42.552C143.487 42.9067 144.234 43.42 144.85 44.092C145.466 44.764 145.942 45.576 146.278 46.528C146.633 47.4613 146.81 48.5067 146.81 49.664ZM143.338 49.664C143.338 48.208 143.021 47.06 142.386 46.22C141.77 45.3613 140.902 44.932 139.782 44.932C138.662 44.932 137.785 45.3613 137.15 46.22C136.534 47.06 136.226 48.208 136.226 49.664C136.226 51.1387 136.534 52.3053 137.15 53.164C137.785 54.0227 138.662 54.452 139.782 54.452C140.902 54.452 141.77 54.0227 142.386 53.164C143.021 52.3053 143.338 51.1387 143.338 49.664ZM162.313 56.552C161.659 56.72 160.81 56.888 159.765 57.056C158.719 57.2427 157.571 57.336 156.321 57.336C155.145 57.336 154.155 57.168 153.353 56.832C152.569 56.496 151.934 56.0293 151.449 55.432C150.982 54.8347 150.646 54.1253 150.441 53.304C150.235 52.464 150.133 51.5493 150.133 50.56V42.356H153.521V50.028C153.521 51.596 153.745 52.716 154.193 53.388C154.659 54.06 155.462 54.396 156.601 54.396C157.011 54.396 157.441 54.3773 157.889 54.34C158.355 54.3027 158.701 54.256 158.925 54.2V42.356H162.313V56.552ZM40 91.352H54V94.18H40V91.352Z" fill="white"/>
<defs>
<filter id="filter0_d" x="0" y="0" width="691" height="200" filterUnits="userSpaceOnUse" color-interpolation-filters="sRGB">
<feFlood flood-opacity="0" result="BackgroundImageFix"/>
<feColorMatrix in="SourceAlpha" type="matrix" values="0 0 0 0 0 0 0 0 0 0 0 0 0 0 0 0 0 0 127 0"/>
<feOffset dy="5"/>
<feGaussianBlur stdDeviation="5"/>
<feColorMatrix type="matrix" values="0 0 0 0 0 0 0 0 0 0 0 0 0 0 0 0 0 0 0.45 0"/>
<feBlend mode="normal" in2="BackgroundImageFix" result="effect1_dropShadow"/>
<feBlend mode="normal" in="SourceGraphic" in2="effect1_dropShadow" result="shape"/>
</filter>
</defs>
</svg>
