<svg width="691" height="200" viewBox="0 0 691 200" fill="none" xmlns="http://www.w3.org/2000/svg">
<g filter="url(#filter0_d)">
<rect x="10" y="5" width="671" height="180" rx="13" fill="#69156A"/>
</g>
<path d="M46.552 56.636C45.208 56.5427 44.116 56.3653 43.276 56.104C42.4547 55.824 41.8387 55.572 41.428 55.348L42.38 52.688C42.9773 52.9867 43.696 53.2573 44.536 53.5C45.3947 53.7427 46.3653 53.864 47.448 53.864C48.736 53.864 49.6227 53.6773 50.108 53.304C50.612 52.912 50.864 52.3987 50.864 51.764C50.864 51.3347 50.7613 50.9613 50.556 50.644C50.3507 50.3267 50.0613 50.0467 49.688 49.804C49.3147 49.5613 48.8667 49.3373 48.344 49.132C47.84 48.9267 47.28 48.712 46.664 48.488C46.0853 48.2827 45.5067 48.0493 44.928 47.788C44.368 47.5267 43.8547 47.2093 43.388 46.836C42.94 46.444 42.576 45.9773 42.296 45.436C42.016 44.8947 41.876 44.232 41.876 43.448C41.876 42.16 42.2587 41.068 43.024 40.172C43.7893 39.2573 44.9653 38.6693 46.552 38.408V35.272H49.464V38.296C50.36 38.3707 51.1627 38.5013 51.872 38.688C52.5813 38.856 53.1413 39.024 53.552 39.192L52.852 41.964C52.3107 41.7587 51.6667 41.5627 50.92 41.376C50.192 41.1893 49.352 41.096 48.4 41.096C47.392 41.096 46.636 41.2827 46.132 41.656C45.628 42.0107 45.376 42.5053 45.376 43.14C45.376 43.5133 45.4507 43.8307 45.6 44.092C45.7493 44.3347 45.9733 44.5587 46.272 44.764C46.5707 44.9507 46.9347 45.1373 47.364 45.324C47.7933 45.492 48.2787 45.6693 48.82 45.856C49.5853 46.1547 50.304 46.472 50.976 46.808C51.6667 47.1253 52.264 47.508 52.768 47.956C53.272 48.3853 53.664 48.8987 53.944 49.496C54.2427 50.0933 54.392 50.8027 54.392 51.624C54.392 52.856 54.0093 53.92 53.244 54.816C52.4787 55.712 51.2187 56.2907 49.464 56.552V60.052H46.552V56.636Z" fill="#00FF29"/>
<path d="M68.2732 54.564C69.1692 54.564 69.8226 54.4613 70.2332 54.256C70.6439 54.032 70.8492 53.6587 70.8492 53.136C70.8492 52.6507 70.6252 52.2493 70.1772 51.932C69.7479 51.6147 69.0292 51.2693 68.0212 50.896C67.4052 50.672 66.8359 50.4387 66.3132 50.196C65.8092 49.9347 65.3706 49.636 64.9972 49.3C64.6239 48.964 64.3252 48.5627 64.1012 48.096C63.8959 47.6107 63.7932 47.0227 63.7932 46.332C63.7932 44.988 64.2879 43.9333 65.2772 43.168C66.2666 42.384 67.6106 41.992 69.3092 41.992C70.1679 41.992 70.9892 42.076 71.7732 42.244C72.5572 42.3933 73.1452 42.5427 73.5372 42.692L72.9212 45.436C72.5479 45.268 72.0719 45.1187 71.4932 44.988C70.9146 44.8387 70.2426 44.764 69.4772 44.764C68.7866 44.764 68.2266 44.8853 67.7972 45.128C67.3679 45.352 67.1532 45.7067 67.1532 46.192C67.1532 46.4347 67.1906 46.6493 67.2652 46.836C67.3586 47.0227 67.5079 47.2 67.7132 47.368C67.9186 47.5173 68.1892 47.676 68.5252 47.844C68.8612 47.9933 69.2719 48.152 69.7572 48.32C70.5599 48.6187 71.2412 48.9173 71.8012 49.216C72.3612 49.496 72.8186 49.8227 73.1732 50.196C73.5466 50.5507 73.8172 50.9613 73.9852 51.428C74.1532 51.8947 74.2372 52.4547 74.2372 53.108C74.2372 54.508 73.7146 55.572 72.6692 56.3C71.6426 57.0093 70.1679 57.364 68.2452 57.364C66.9572 57.364 65.9212 57.252 65.1372 57.028C64.3532 56.8227 63.8026 56.6547 63.4852 56.524L64.0732 53.696C64.5772 53.9013 65.1746 54.0973 65.8652 54.284C66.5746 54.4707 67.3772 54.564 68.2732 54.564ZM89.4141 56.552C88.7608 56.72 87.9114 56.888 86.8661 57.056C85.8208 57.2427 84.6728 57.336 83.4221 57.336C82.2461 57.336 81.2568 57.168 80.4541 56.832C79.6701 56.496 79.0354 56.0293 78.5501 55.432C78.0834 54.8347 77.7474 54.1253 77.5421 53.304C77.3368 52.464 77.2341 51.5493 77.2341 50.56V42.356H80.6221V50.028C80.6221 51.596 80.8461 52.716 81.2941 53.388C81.7608 54.06 82.5634 54.396 83.7021 54.396C84.1128 54.396 84.5421 54.3773 84.9901 54.34C85.4568 54.3027 85.8021 54.256 86.0261 54.2V42.356H89.4141V56.552ZM96.3863 49.636C96.3863 51.1293 96.741 52.3053 97.4503 53.164C98.1596 54.004 99.1396 54.424 100.39 54.424C100.932 54.424 101.389 54.4053 101.762 54.368C102.154 54.312 102.472 54.256 102.714 54.2V45.8C102.416 45.5947 102.014 45.408 101.51 45.24C101.025 45.0533 100.502 44.96 99.9423 44.96C98.7103 44.96 97.805 45.38 97.2263 46.22C96.6663 47.06 96.3863 48.1987 96.3863 49.636ZM106.102 56.552C105.43 56.7573 104.581 56.944 103.554 57.112C102.546 57.28 101.482 57.364 100.362 57.364C99.205 57.364 98.169 57.1867 97.2543 56.832C96.3396 56.4773 95.5556 55.9733 94.9023 55.32C94.2676 54.648 93.773 53.8453 93.4183 52.912C93.0823 51.96 92.9143 50.896 92.9143 49.72C92.9143 48.5627 93.0543 47.5173 93.3343 46.584C93.633 45.632 94.0623 44.82 94.6223 44.148C95.1823 43.476 95.8636 42.9627 96.6663 42.608C97.469 42.2347 98.393 42.048 99.4383 42.048C100.148 42.048 100.773 42.132 101.314 42.3C101.856 42.468 102.322 42.6547 102.714 42.86V35.832L106.102 35.272V56.552ZM123.65 49.664C123.65 50.8213 123.482 51.876 123.146 52.828C122.81 53.78 122.334 54.592 121.718 55.264C121.102 55.936 120.355 56.4587 119.478 56.832C118.619 57.2053 117.667 57.392 116.622 57.392C115.577 57.392 114.625 57.2053 113.766 56.832C112.907 56.4587 112.17 55.936 111.554 55.264C110.938 54.592 110.453 53.78 110.098 52.828C109.762 51.876 109.594 50.8213 109.594 49.664C109.594 48.5067 109.762 47.4613 110.098 46.528C110.453 45.576 110.938 44.764 111.554 44.092C112.189 43.42 112.935 42.9067 113.794 42.552C114.653 42.1787 115.595 41.992 116.622 41.992C117.649 41.992 118.591 42.1787 119.45 42.552C120.327 42.9067 121.074 43.42 121.69 44.092C122.306 44.764 122.782 45.576 123.118 46.528C123.473 47.4613 123.65 48.5067 123.65 49.664ZM120.178 49.664C120.178 48.208 119.861 47.06 119.226 46.22C118.61 45.3613 117.742 44.932 116.622 44.932C115.502 44.932 114.625 45.3613 113.99 46.22C113.374 47.06 113.066 48.208 113.066 49.664C113.066 51.1387 113.374 52.3053 113.99 53.164C114.625 54.0227 115.502 54.452 116.622 54.452C117.742 54.452 118.61 54.0227 119.226 53.164C119.861 52.3053 120.178 51.1387 120.178 49.664ZM145.688 56.552C145.034 56.72 144.185 56.888 143.14 57.056C142.094 57.2427 140.946 57.336 139.696 57.336C138.52 57.336 137.53 57.168 136.728 56.832C135.944 56.496 135.309 56.0293 134.824 55.432C134.357 54.8347 134.021 54.1253 133.816 53.304C133.61 52.464 133.508 51.5493 133.508 50.56V42.356H136.896V50.028C136.896 51.596 137.12 52.716 137.568 53.388C138.034 54.06 138.837 54.396 139.976 54.396C140.386 54.396 140.816 54.3773 141.264 54.34C141.73 54.3027 142.076 54.256 142.3 54.2V42.356H145.688V56.552ZM153.668 54.564C154.564 54.564 155.217 54.4613 155.628 54.256C156.038 54.032 156.244 53.6587 156.244 53.136C156.244 52.6507 156.02 52.2493 155.572 51.932C155.142 51.6147 154.424 51.2693 153.416 50.896C152.8 50.672 152.23 50.4387 151.708 50.196C151.204 49.9347 150.765 49.636 150.392 49.3C150.018 48.964 149.72 48.5627 149.496 48.096C149.29 47.6107 149.188 47.0227 149.188 46.332C149.188 44.988 149.682 43.9333 150.672 43.168C151.661 42.384 153.005 41.992 154.704 41.992C155.562 41.992 156.384 42.076 157.168 42.244C157.952 42.3933 158.54 42.5427 158.932 42.692L158.316 45.436C157.942 45.268 157.466 45.1187 156.888 44.988C156.309 44.8387 155.637 44.764 154.872 44.764C154.181 44.764 153.621 44.8853 153.192 45.128C152.762 45.352 152.548 45.7067 152.548 46.192C152.548 46.4347 152.585 46.6493 152.66 46.836C152.753 47.0227 152.902 47.2 153.108 47.368C153.313 47.5173 153.584 47.676 153.92 47.844C154.256 47.9933 154.666 48.152 155.152 48.32C155.954 48.6187 156.636 48.9173 157.196 49.216C157.756 49.496 158.213 49.8227 158.568 50.196C158.941 50.5507 159.212 50.9613 159.38 51.428C159.548 51.8947 159.632 52.4547 159.632 53.108C159.632 54.508 159.109 55.572 158.064 56.3C157.037 57.0093 155.562 57.364 153.64 57.364C152.352 57.364 151.316 57.252 150.532 57.028C149.748 56.8227 149.197 56.6547 148.88 56.524L149.468 53.696C149.972 53.9013 150.569 54.0973 151.26 54.284C151.969 54.4707 152.772 54.564 153.668 54.564ZM161.985 49.748C161.985 48.46 162.171 47.3307 162.545 46.36C162.937 45.3893 163.45 44.5867 164.085 43.952C164.719 43.2987 165.447 42.8133 166.269 42.496C167.09 42.16 167.93 41.992 168.789 41.992C170.805 41.992 172.373 42.6173 173.493 43.868C174.631 45.1187 175.201 46.9853 175.201 49.468C175.201 49.6547 175.191 49.8693 175.173 50.112C175.173 50.336 175.163 50.5413 175.145 50.728H165.485C165.578 51.904 165.989 52.8187 166.717 53.472C167.463 54.1067 168.537 54.424 169.937 54.424C170.758 54.424 171.505 54.3493 172.177 54.2C172.867 54.0507 173.409 53.892 173.801 53.724L174.249 56.496C174.062 56.5893 173.801 56.692 173.465 56.804C173.147 56.8973 172.774 56.9813 172.345 57.056C171.934 57.1493 171.486 57.224 171.001 57.28C170.515 57.336 170.021 57.364 169.517 57.364C168.229 57.364 167.109 57.1773 166.157 56.804C165.205 56.412 164.421 55.88 163.805 55.208C163.189 54.5173 162.731 53.7147 162.433 52.8C162.134 51.8667 161.985 50.8493 161.985 49.748ZM171.813 48.236C171.813 47.7693 171.747 47.3307 171.617 46.92C171.486 46.4907 171.29 46.1267 171.029 45.828C170.786 45.5107 170.478 45.268 170.105 45.1C169.75 44.9133 169.321 44.82 168.817 44.82C168.294 44.82 167.837 44.9227 167.445 45.128C167.053 45.3147 166.717 45.5667 166.437 45.884C166.175 46.2013 165.97 46.5653 165.821 46.976C165.671 47.3867 165.569 47.8067 165.513 48.236H171.813ZM187.137 45.408C186.857 45.3147 186.465 45.2213 185.961 45.128C185.475 45.016 184.906 44.96 184.253 44.96C183.879 44.96 183.478 44.9973 183.049 45.072C182.638 45.1467 182.349 45.212 182.181 45.268V57H178.793V43.056C179.446 42.8133 180.258 42.5893 181.229 42.384C182.218 42.16 183.31 42.048 184.505 42.048C184.729 42.048 184.99 42.0667 185.289 42.104C185.587 42.1227 185.886 42.16 186.185 42.216C186.483 42.2533 186.773 42.3093 187.053 42.384C187.333 42.44 187.557 42.496 187.725 42.552L187.137 45.408ZM195.238 54.62C196.283 54.62 197.076 54.564 197.618 54.452V50.7C197.431 50.644 197.16 50.588 196.806 50.532C196.451 50.476 196.059 50.448 195.63 50.448C195.256 50.448 194.874 50.476 194.482 50.532C194.108 50.588 193.763 50.6907 193.446 50.84C193.147 50.9893 192.904 51.204 192.718 51.484C192.531 51.7453 192.438 52.0813 192.438 52.492C192.438 53.2947 192.69 53.8547 193.194 54.172C193.698 54.4707 194.379 54.62 195.238 54.62ZM194.958 41.992C196.078 41.992 197.02 42.132 197.786 42.412C198.551 42.692 199.158 43.084 199.606 43.588C200.072 44.092 200.399 44.708 200.586 45.436C200.791 46.1453 200.894 46.9293 200.894 47.788V56.664C200.371 56.776 199.578 56.9067 198.514 57.056C197.468 57.224 196.283 57.308 194.958 57.308C194.08 57.308 193.278 57.224 192.55 57.056C191.822 56.888 191.196 56.6173 190.674 56.244C190.17 55.8707 189.768 55.3853 189.47 54.788C189.19 54.1907 189.05 53.4533 189.05 52.576C189.05 51.736 189.208 51.0267 189.526 50.448C189.862 49.8693 190.31 49.4027 190.87 49.048C191.43 48.6747 192.074 48.4133 192.802 48.264C193.548 48.096 194.323 48.012 195.126 48.012C195.499 48.012 195.891 48.04 196.302 48.096C196.712 48.1333 197.151 48.208 197.618 48.32V47.76C197.618 47.368 197.571 46.9947 197.478 46.64C197.384 46.2853 197.216 45.9773 196.974 45.716C196.75 45.436 196.442 45.2213 196.05 45.072C195.676 44.9227 195.2 44.848 194.622 44.848C193.838 44.848 193.119 44.904 192.466 45.016C191.812 45.128 191.28 45.2587 190.87 45.408L190.45 42.664C190.879 42.5147 191.504 42.3653 192.326 42.216C193.147 42.0667 194.024 41.992 194.958 41.992ZM207.703 49.636C207.703 51.1293 208.057 52.3053 208.767 53.164C209.476 54.004 210.456 54.424 211.707 54.424C212.248 54.424 212.705 54.4053 213.079 54.368C213.471 54.312 213.788 54.256 214.031 54.2V45.8C213.732 45.5947 213.331 45.408 212.827 45.24C212.341 45.0533 211.819 44.96 211.259 44.96C210.027 44.96 209.121 45.38 208.543 46.22C207.983 47.06 207.703 48.1987 207.703 49.636ZM217.419 56.552C216.747 56.7573 215.897 56.944 214.871 57.112C213.863 57.28 212.799 57.364 211.679 57.364C210.521 57.364 209.485 57.1867 208.571 56.832C207.656 56.4773 206.872 55.9733 206.219 55.32C205.584 54.648 205.089 53.8453 204.735 52.912C204.399 51.96 204.231 50.896 204.231 49.72C204.231 48.5627 204.371 47.5173 204.651 46.584C204.949 45.632 205.379 44.82 205.939 44.148C206.499 43.476 207.18 42.9627 207.983 42.608C208.785 42.2347 209.709 42.048 210.755 42.048C211.464 42.048 212.089 42.132 212.631 42.3C213.172 42.468 213.639 42.6547 214.031 42.86V35.832L217.419 35.272V56.552ZM224.382 49.636C224.382 51.1293 224.737 52.3053 225.446 53.164C226.156 54.004 227.136 54.424 228.386 54.424C228.928 54.424 229.385 54.4053 229.758 54.368C230.15 54.312 230.468 54.256 230.71 54.2V45.8C230.412 45.5947 230.01 45.408 229.506 45.24C229.021 45.0533 228.498 44.96 227.938 44.96C226.706 44.96 225.801 45.38 225.222 46.22C224.662 47.06 224.382 48.1987 224.382 49.636ZM234.098 56.552C233.426 56.7573 232.577 56.944 231.55 57.112C230.542 57.28 229.478 57.364 228.358 57.364C227.201 57.364 226.165 57.1867 225.25 56.832C224.336 56.4773 223.552 55.9733 222.898 55.32C222.264 54.648 221.769 53.8453 221.414 52.912C221.078 51.96 220.91 50.896 220.91 49.72C220.91 48.5627 221.05 47.5173 221.33 46.584C221.629 45.632 222.058 44.82 222.618 44.148C223.178 43.476 223.86 42.9627 224.662 42.608C225.465 42.2347 226.389 42.048 227.434 42.048C228.144 42.048 228.769 42.132 229.31 42.3C229.852 42.468 230.318 42.6547 230.71 42.86V35.832L234.098 35.272V56.552ZM253.197 52.072H249.305L248.353 57H245.357L246.309 52.072H244.069V49.412H246.813L247.625 45.184H244.069V42.552H248.129L249.081 37.596H252.077L251.125 42.552H255.017L255.969 37.596H258.965L258.013 42.552H260.281V45.184H257.509L256.697 49.412H260.281V52.072H256.193L255.241 57H252.245L253.197 52.072ZM249.809 49.412H253.701L254.513 45.184H250.621L249.809 49.412ZM275.678 42.356C274.166 47.9187 272.412 52.9587 270.414 57.476C270.041 58.316 269.658 59.0347 269.266 59.632C268.874 60.2293 268.436 60.724 267.95 61.116C267.465 61.508 266.924 61.788 266.326 61.956C265.729 62.1427 265.038 62.236 264.254 62.236C263.732 62.236 263.209 62.18 262.686 62.068C262.182 61.956 261.8 61.8347 261.538 61.704L262.154 58.988C262.826 59.2493 263.489 59.38 264.142 59.38C265.02 59.38 265.701 59.1653 266.186 58.736C266.69 58.3253 267.129 57.6813 267.502 56.804C266.438 54.7507 265.412 52.5107 264.422 50.084C263.452 47.6573 262.584 45.0813 261.818 42.356H265.43C265.617 43.14 265.841 43.9893 266.102 44.904C266.382 45.8187 266.681 46.752 266.998 47.704C267.316 48.6373 267.652 49.5707 268.006 50.504C268.361 51.4373 268.716 52.3053 269.07 53.108C269.668 51.4467 270.228 49.6827 270.75 47.816C271.273 45.9307 271.749 44.1107 272.178 42.356H275.678ZM291.486 49.664C291.486 50.8213 291.318 51.876 290.982 52.828C290.646 53.78 290.17 54.592 289.554 55.264C288.938 55.936 288.191 56.4587 287.314 56.832C286.455 57.2053 285.503 57.392 284.458 57.392C283.413 57.392 282.461 57.2053 281.602 56.832C280.743 56.4587 280.006 55.936 279.39 55.264C278.774 54.592 278.289 53.78 277.934 52.828C277.598 51.876 277.43 50.8213 277.43 49.664C277.43 48.5067 277.598 47.4613 277.934 46.528C278.289 45.576 278.774 44.764 279.39 44.092C280.025 43.42 280.771 42.9067 281.63 42.552C282.489 42.1787 283.431 41.992 284.458 41.992C285.485 41.992 286.427 42.1787 287.286 42.552C288.163 42.9067 288.91 43.42 289.526 44.092C290.142 44.764 290.618 45.576 290.954 46.528C291.309 47.4613 291.486 48.5067 291.486 49.664ZM288.014 49.664C288.014 48.208 287.697 47.06 287.062 46.22C286.446 45.3613 285.578 44.932 284.458 44.932C283.338 44.932 282.461 45.3613 281.826 46.22C281.21 47.06 280.902 48.208 280.902 49.664C280.902 51.1387 281.21 52.3053 281.826 53.164C282.461 54.0227 283.338 54.452 284.458 54.452C285.578 54.452 286.446 54.0227 287.062 53.164C287.697 52.3053 288.014 51.1387 288.014 49.664ZM306.988 56.552C306.335 56.72 305.486 56.888 304.44 57.056C303.395 57.2427 302.247 57.336 300.996 57.336C299.82 57.336 298.831 57.168 298.028 56.832C297.244 56.496 296.61 56.0293 296.124 55.432C295.658 54.8347 295.322 54.1253 295.116 53.304C294.911 52.464 294.808 51.5493 294.808 50.56V42.356H298.196V50.028C298.196 51.596 298.42 52.716 298.868 53.388C299.335 54.06 300.138 54.396 301.276 54.396C301.687 54.396 302.116 54.3773 302.564 54.34C303.031 54.3027 303.376 54.256 303.6 54.2V42.356H306.988V56.552ZM40 91.352H54V94.18H40V91.352Z" fill="white"/>
<defs>
<filter id="filter0_d" x="0" y="0" width="691" height="200" filterUnits="userSpaceOnUse" color-interpolation-filters="sRGB">
<feFlood flood-opacity="0" result="BackgroundImageFix"/>
<feColorMatrix in="SourceAlpha" type="matrix" values="0 0 0 0 0 0 0 0 0 0 0 0 0 0 0 0 0 0 127 0"/>
<feOffset dy="5"/>
<feGaussianBlur stdDeviation="5"/>
<feColorMatrix type="matrix" values="0 0 0 0 0 0 0 0 0 0 0 0 0 0 0 0 0 0 0.45 0"/>
<feBlend mode="normal" in2="BackgroundImageFix" result="effect1_dropShadow"/>
<feBlend mode="normal" in="SourceGraphic" in2="effect1_dropShadow" result="shape"/>
</filter>
</defs>
</svg>
